<mxfile host="65bd71144e">
    <diagram id="WV8sBLOJ4kn_KLJhL_mK" name="Страница 1">
        <mxGraphModel dx="1183" dy="654" grid="1" gridSize="10" guides="1" tooltips="1" connect="1" arrows="1" fold="1" page="1" pageScale="1" pageWidth="827" pageHeight="1169" math="0" shadow="0">
            <root>
                <mxCell id="0"/>
                <mxCell id="1" parent="0"/>
                <mxCell id="wlObWk9HbK-DdQs4jwHD-15" value="" style="group" parent="1" vertex="1" connectable="0">
                    <mxGeometry x="400" y="80" width="210" height="140" as="geometry"/>
                </mxCell>
                <mxCell id="wlObWk9HbK-DdQs4jwHD-1" value="" style="rounded=1;whiteSpace=wrap;html=1;strokeWidth=2;fillWeight=4;hachureGap=8;hachureAngle=45;fillColor=#00CC66;sketch=1;fillStyle=auto;gradientColor=none;glass=0;shadow=0;opacity=70;verticalAlign=middle;rotation=0;direction=east;arcSize=26;container=0;" parent="wlObWk9HbK-DdQs4jwHD-15" vertex="1">
                    <mxGeometry width="210" height="140" as="geometry"/>
                </mxCell>
                <mxCell id="wlObWk9HbK-DdQs4jwHD-3" value="&lt;font face=&quot;Comic Sans MS&quot; style=&quot;font-size: 18px;&quot;&gt;&lt;b&gt;Users&lt;/b&gt;&lt;/font&gt;" style="text;html=1;strokeColor=none;fillColor=none;align=center;verticalAlign=middle;whiteSpace=wrap;rounded=0;shadow=0;glass=0;sketch=1;fillStyle=auto;opacity=70;container=0;" parent="wlObWk9HbK-DdQs4jwHD-15" vertex="1">
                    <mxGeometry x="75" width="60" height="30" as="geometry"/>
                </mxCell>
                <mxCell id="wlObWk9HbK-DdQs4jwHD-26" value="&lt;font style=&quot;font-size: 13px;&quot;&gt;&lt;b&gt;usersCustomer&lt;/b&gt;&lt;/font&gt;" style="rounded=1;whiteSpace=wrap;html=1;shadow=0;glass=0;sketch=1;fillStyle=auto;fontFamily=Comic Sans MS;fontSize=18;fillColor=#FF70A0;gradientColor=none;arcSize=50;" parent="wlObWk9HbK-DdQs4jwHD-15" vertex="1">
                    <mxGeometry x="7" y="29" width="93" height="40" as="geometry"/>
                </mxCell>
                <mxCell id="wlObWk9HbK-DdQs4jwHD-27" value="&lt;font style=&quot;font-size: 13px;&quot;&gt;&lt;b&gt;usersPerformer&lt;/b&gt;&lt;/font&gt;" style="rounded=1;whiteSpace=wrap;html=1;shadow=0;glass=0;sketch=1;fillStyle=auto;fontFamily=Comic Sans MS;fontSize=18;fillColor=#FF70A0;gradientColor=none;arcSize=50;" parent="wlObWk9HbK-DdQs4jwHD-15" vertex="1">
                    <mxGeometry x="8" y="80" width="93" height="40" as="geometry"/>
                </mxCell>
                <mxCell id="wlObWk9HbK-DdQs4jwHD-29" value="&lt;font style=&quot;font-size: 13px;&quot;&gt;&lt;b style=&quot;&quot;&gt;reviews&lt;/b&gt;&lt;/font&gt;" style="rounded=1;whiteSpace=wrap;html=1;shadow=0;glass=0;sketch=1;fillStyle=auto;fontFamily=Comic Sans MS;fontSize=18;fillColor=#DCE835;gradientColor=none;arcSize=50;" parent="wlObWk9HbK-DdQs4jwHD-15" vertex="1">
                    <mxGeometry x="110" y="50" width="93" height="40" as="geometry"/>
                </mxCell>
                <mxCell id="wlObWk9HbK-DdQs4jwHD-16" value="" style="group" parent="1" vertex="1" connectable="0">
                    <mxGeometry x="400" y="350" width="210" height="140" as="geometry"/>
                </mxCell>
                <mxCell id="wlObWk9HbK-DdQs4jwHD-4" value="" style="rounded=1;whiteSpace=wrap;html=1;strokeWidth=2;fillWeight=4;hachureGap=8;hachureAngle=45;fillColor=#FF3333;sketch=1;fillStyle=auto;gradientColor=none;glass=0;shadow=0;opacity=70;verticalAlign=middle;rotation=0;direction=east;arcSize=26;container=0;" parent="wlObWk9HbK-DdQs4jwHD-16" vertex="1">
                    <mxGeometry width="210" height="140" as="geometry"/>
                </mxCell>
                <mxCell id="wlObWk9HbK-DdQs4jwHD-6" value="&lt;b&gt;Tasks&lt;/b&gt;" style="text;html=1;strokeColor=none;fillColor=none;align=center;verticalAlign=middle;whiteSpace=wrap;rounded=0;shadow=0;glass=0;sketch=1;fillStyle=auto;fontFamily=Comic Sans MS;fontSize=18;opacity=70;container=0;" parent="wlObWk9HbK-DdQs4jwHD-16" vertex="1">
                    <mxGeometry x="75" width="60" height="30" as="geometry"/>
                </mxCell>
                <mxCell id="wlObWk9HbK-DdQs4jwHD-28" value="&lt;font style=&quot;font-size: 13px;&quot;&gt;&lt;b&gt;tasks&lt;/b&gt;&lt;/font&gt;" style="rounded=1;whiteSpace=wrap;html=1;shadow=0;glass=0;sketch=1;fillStyle=auto;fontFamily=Comic Sans MS;fontSize=18;fillColor=#DCE835;gradientColor=none;arcSize=50;" parent="wlObWk9HbK-DdQs4jwHD-16" vertex="1">
                    <mxGeometry x="100" y="77.5" width="93" height="40" as="geometry"/>
                </mxCell>
                <mxCell id="wlObWk9HbK-DdQs4jwHD-30" value="&lt;font style=&quot;font-size: 13px;&quot;&gt;&lt;b&gt;comments&lt;/b&gt;&lt;/font&gt;" style="rounded=1;whiteSpace=wrap;html=1;shadow=0;glass=0;sketch=1;fillStyle=auto;fontFamily=Comic Sans MS;fontSize=18;fillColor=#DCE835;gradientColor=none;arcSize=50;" parent="wlObWk9HbK-DdQs4jwHD-16" vertex="1">
                    <mxGeometry x="14" y="37.5" width="93" height="40" as="geometry"/>
                </mxCell>
                <mxCell id="wlObWk9HbK-DdQs4jwHD-34" value="" style="endArrow=classic;html=1;rounded=1;shadow=0;sketch=0;strokeColor=#7EA6E0;strokeWidth=3;fontFamily=Comic Sans MS;fontSize=15;fontColor=#000000;fillColor=#A680B8;jumpStyle=none;jumpSize=6;entryX=0;entryY=1;entryDx=0;entryDy=0;exitX=1;exitY=0.5;exitDx=0;exitDy=0;" parent="1" source="wlObWk9HbK-DdQs4jwHD-28" target="wlObWk9HbK-DdQs4jwHD-33" edge="1">
                    <mxGeometry width="50" height="50" relative="1" as="geometry">
                        <mxPoint x="620" y="423" as="sourcePoint"/>
                        <mxPoint x="680" y="340" as="targetPoint"/>
                    </mxGeometry>
                </mxCell>
                <mxCell id="wlObWk9HbK-DdQs4jwHD-35" value="new task" style="text;html=1;strokeColor=none;fillColor=none;align=center;verticalAlign=middle;whiteSpace=wrap;rounded=0;shadow=0;glass=0;sketch=1;fillStyle=auto;fontFamily=Comic Sans MS;fontSize=15;fontColor=#000000;rotation=348;direction=east;" parent="1" vertex="1">
                    <mxGeometry x="767" y="376" width="110" height="40" as="geometry"/>
                </mxCell>
                <mxCell id="wlObWk9HbK-DdQs4jwHD-36" value="" style="endArrow=classic;html=1;rounded=1;shadow=0;sketch=0;strokeColor=#7EA6E0;strokeWidth=3;fontFamily=Comic Sans MS;fontSize=15;fontColor=#000000;fillColor=#A680B8;jumpStyle=none;jumpSize=6;entryX=1;entryY=0.5;entryDx=0;entryDy=0;exitX=0.082;exitY=0.225;exitDx=0;exitDy=0;exitPerimeter=0;" parent="1" source="wlObWk9HbK-DdQs4jwHD-33" target="wlObWk9HbK-DdQs4jwHD-27" edge="1">
                    <mxGeometry width="50" height="50" relative="1" as="geometry">
                        <mxPoint x="610" y="277.14" as="sourcePoint"/>
                        <mxPoint x="1031.8959235991433" y="219.99533905932765" as="targetPoint"/>
                    </mxGeometry>
                </mxCell>
                <mxCell id="wlObWk9HbK-DdQs4jwHD-37" value="" style="group" parent="1" vertex="1" connectable="0">
                    <mxGeometry x="961" y="196" width="280" height="180" as="geometry"/>
                </mxCell>
                <mxCell id="wlObWk9HbK-DdQs4jwHD-13" value="" style="group" parent="wlObWk9HbK-DdQs4jwHD-37" vertex="1" connectable="0">
                    <mxGeometry x="70" width="210" height="140" as="geometry"/>
                </mxCell>
                <mxCell id="wlObWk9HbK-DdQs4jwHD-7" value="" style="rounded=1;whiteSpace=wrap;html=1;strokeWidth=2;fillWeight=4;hachureGap=8;hachureAngle=45;fillColor=#FF33FF;sketch=1;fillStyle=auto;gradientColor=none;glass=0;shadow=0;opacity=70;verticalAlign=middle;rotation=0;direction=east;arcSize=26;movable=1;resizable=1;rotatable=1;deletable=1;editable=1;connectable=1;container=0;" parent="wlObWk9HbK-DdQs4jwHD-13" vertex="1">
                    <mxGeometry width="210" height="140" as="geometry"/>
                </mxCell>
                <mxCell id="wlObWk9HbK-DdQs4jwHD-10" value="&lt;b&gt;Notify&lt;/b&gt;" style="text;html=1;strokeColor=none;fillColor=none;align=center;verticalAlign=middle;whiteSpace=wrap;rounded=0;shadow=0;glass=0;sketch=1;fillStyle=auto;fontFamily=Comic Sans MS;fontSize=18;opacity=70;movable=1;resizable=1;rotatable=1;deletable=1;editable=1;connectable=1;container=0;" parent="wlObWk9HbK-DdQs4jwHD-13" vertex="1">
                    <mxGeometry x="75" width="60" height="30" as="geometry"/>
                </mxCell>
                <mxCell id="wlObWk9HbK-DdQs4jwHD-33" value="&lt;b&gt;&lt;font style=&quot;font-size: 15px;&quot;&gt;RabbitMQ&lt;/font&gt;&lt;/b&gt;" style="ellipse;whiteSpace=wrap;html=1;rounded=1;shadow=0;glass=0;sketch=1;fillStyle=auto;fontFamily=Comic Sans MS;fontSize=13;fontColor=#000000;fillColor=#0000FF;gradientColor=none;" parent="wlObWk9HbK-DdQs4jwHD-37" vertex="1">
                    <mxGeometry y="80" width="170" height="100" as="geometry"/>
                </mxCell>
                <mxCell id="wlObWk9HbK-DdQs4jwHD-38" value="" style="group" parent="1" vertex="1" connectable="0">
                    <mxGeometry x="60" y="90" width="340" height="135" as="geometry"/>
                </mxCell>
                <mxCell id="wlObWk9HbK-DdQs4jwHD-17" value="&lt;b&gt;MongoDB&lt;/b&gt;" style="shape=cylinder3;whiteSpace=wrap;html=1;boundedLbl=1;backgroundOutline=1;size=15;rounded=1;shadow=0;glass=0;sketch=1;fillStyle=auto;fontFamily=Comic Sans MS;fontSize=18;fillColor=#FF33FF;gradientColor=none;opacity=70;" parent="wlObWk9HbK-DdQs4jwHD-38" vertex="1">
                    <mxGeometry width="100.00000000000001" height="135" as="geometry"/>
                </mxCell>
                <mxCell id="wlObWk9HbK-DdQs4jwHD-20" value="" style="endArrow=classic;endFill=0;html=1;strokeColor=#7EA6E0;strokeWidth=3;fontFamily=Comic Sans MS;fontSize=18;fillColor=#A680B8;rounded=1;jumpStyle=none;jumpSize=6;sketch=0;shadow=0;startArrow=none;startFill=0;" parent="wlObWk9HbK-DdQs4jwHD-38" edge="1">
                    <mxGeometry width="160" relative="1" as="geometry">
                        <mxPoint x="340.00000000000006" y="34.5" as="sourcePoint"/>
                        <mxPoint x="100.00000000000001" y="34.5" as="targetPoint"/>
                        <Array as="points"/>
                    </mxGeometry>
                </mxCell>
                <mxCell id="wlObWk9HbK-DdQs4jwHD-23" value="" style="endArrow=none;endFill=0;html=1;strokeColor=#7EA6E0;strokeWidth=3;fontFamily=Comic Sans MS;fontSize=18;fillColor=#A680B8;rounded=1;jumpStyle=none;jumpSize=6;sketch=0;shadow=0;startArrow=classic;startFill=0;" parent="wlObWk9HbK-DdQs4jwHD-38" edge="1">
                    <mxGeometry width="160" relative="1" as="geometry">
                        <mxPoint x="340.00000000000006" y="97.5" as="sourcePoint"/>
                        <mxPoint x="100.00000000000001" y="97.5" as="targetPoint"/>
                        <Array as="points"/>
                    </mxGeometry>
                </mxCell>
                <mxCell id="2" value="" style="group" vertex="1" connectable="0" parent="1">
                    <mxGeometry x="60" y="355" width="340" height="135" as="geometry"/>
                </mxCell>
                <mxCell id="wlObWk9HbK-DdQs4jwHD-18" value="&lt;b&gt;PostgreSQL&lt;/b&gt;" style="shape=cylinder3;whiteSpace=wrap;html=1;boundedLbl=1;backgroundOutline=1;size=15;rounded=1;shadow=0;glass=0;sketch=1;fillStyle=auto;fontFamily=Comic Sans MS;fontSize=18;fillColor=#FF33FF;gradientColor=none;opacity=70;" parent="2" vertex="1">
                    <mxGeometry width="100" height="135" as="geometry"/>
                </mxCell>
                <mxCell id="wlObWk9HbK-DdQs4jwHD-24" value="" style="endArrow=none;endFill=0;html=1;strokeColor=#7EA6E0;strokeWidth=3;fontFamily=Comic Sans MS;fontSize=18;fillColor=#A680B8;rounded=1;jumpStyle=none;jumpSize=6;sketch=0;shadow=0;startArrow=classic;startFill=0;" parent="2" edge="1">
                    <mxGeometry width="160" relative="1" as="geometry">
                        <mxPoint x="340" y="105" as="sourcePoint"/>
                        <mxPoint x="100" y="105" as="targetPoint"/>
                        <Array as="points"/>
                    </mxGeometry>
                </mxCell>
                <mxCell id="wlObWk9HbK-DdQs4jwHD-25" value="" style="endArrow=classic;endFill=0;html=1;strokeColor=#7EA6E0;strokeWidth=3;fontFamily=Comic Sans MS;fontSize=18;fillColor=#A680B8;rounded=1;jumpStyle=none;jumpSize=6;sketch=0;shadow=0;startArrow=none;startFill=0;" parent="2" edge="1">
                    <mxGeometry width="160" relative="1" as="geometry">
                        <mxPoint x="340" y="35" as="sourcePoint"/>
                        <mxPoint x="100" y="35" as="targetPoint"/>
                        <Array as="points"/>
                    </mxGeometry>
                </mxCell>
            </root>
        </mxGraphModel>
    </diagram>
</mxfile>
